<svg xmlns="http://www.w3.org/2000/svg" width="18" height="10.69" viewBox="0 0 18 10.69">
  <g id="Icon_humburger" data-name="Icon/humburger" transform="translate(0 0)">
    <path id="Path_13854" data-name="Path 13854" d="M71.65-4.874H87.478a1.075,1.075,0,0,0,.772-.314,1.075,1.075,0,0,0,.315-.772,1.1,1.1,0,0,0-1.087-1.085H71.65A1.1,1.1,0,0,0,70.565-5.96,1.1,1.1,0,0,0,71.65-4.874Z" transform="translate(-70.565 7.045)" fill="#fff"/>
    <path id="Path_13855" data-name="Path 13855" d="M87.478-2.786H71.65A1.1,1.1,0,0,0,70.565-1.7,1.1,1.1,0,0,0,71.65-.614H87.478a1.075,1.075,0,0,0,.772-.314,1.075,1.075,0,0,0,.315-.772,1.1,1.1,0,0,0-1.087-1.086Z" transform="translate(-70.565 7.045)" fill="#fff"/>
    <path id="Path_13856" data-name="Path 13856" d="M87.478,1.473H71.65a1.1,1.1,0,0,0-1.085,1.086A1.1,1.1,0,0,0,71.65,3.645H87.478a1.075,1.075,0,0,0,1.087-1.086A1.1,1.1,0,0,0,87.478,1.473Z" transform="translate(-70.565 7.045)" fill="#fff"/>
  </g>
</svg>
