<svg id="Icon_Alert" data-name="Icon/Alert" xmlns="http://www.w3.org/2000/svg" width="32" height="33" viewBox="0 0 32 33">
  <rect id="長方形_4664" data-name="長方形 4664" width="32" height="32" transform="translate(0 1)" fill="none"/>
  <g id="グループ_6916" data-name="グループ 6916">
    <path id="パス_14313" data-name="パス 14313" d="M970.56,547.348a.853.853,0,0,0-.108-.255l-.078-.1a9.36,9.36,0,0,1-2.919-6.788v-3.84a6.506,6.506,0,0,0-3.791-5.878,8.986,8.986,0,0,0-1.352-.48v-.059a2.38,2.38,0,0,0-4.761,0v.1a9.091,9.091,0,0,0-1.205.451,6.655,6.655,0,0,0-3.928,5.868v3.85a9.313,9.313,0,0,1-2.8,6.788.673.673,0,0,0-.009.931.641.641,0,0,0,.372.215l4.055.7c.715.117,1.372.215,1.989.3a4.456,4.456,0,0,0,7.944,0c.637-.088,1.284-.186,1.989-.3l4.055-.7a.66.66,0,0,0,.441-.284A.637.637,0,0,0,970.56,547.348Zm-10.629-18.436a1.029,1.029,0,0,1,1.009.833,8.742,8.742,0,0,0-2.027.019A1.04,1.04,0,0,1,959.931,528.912ZM960,550.228a3.194,3.194,0,0,1-2.155-.872,26.407,26.407,0,0,0,4.32,0A3.2,3.2,0,0,1,960,550.228Zm5.731-2.714c-.931.157-1.636.265-2.273.343-.3.04-.617.079-.921.108-.264.029-.529.049-.793.069l-.951.049q-.794.028-1.557,0l-.98-.049c-.254-.02-.509-.04-.8-.069-.255-.019-.519-.059-.793-.088l-.108-.02c-.627-.078-1.323-.176-2.283-.343l-2.86-.489a10.5,10.5,0,0,0,2.351-6.818v-3.83a5.33,5.33,0,0,1,3.145-4.654,7.542,7.542,0,0,1,1.391-.489l.058-.01a7.84,7.84,0,0,1,3.164-.03,6.947,6.947,0,0,1,1.577.529,5.184,5.184,0,0,1,3.008,4.644v3.85a10.622,10.622,0,0,0,2.478,6.808Z" transform="translate(-949.424 -527.57)" fill="#fff"/>
  </g>
</svg>
