<svg id="Table_with_sort_Mobile" data-name="Table with sort/Mobile" xmlns="http://www.w3.org/2000/svg" width="642" height="210" viewBox="0 0 642 210">
  <g id="Extension_table_Mobile_default" data-name="Extension table/Mobile/default" transform="translate(0 158)">
    <g id="コンポーネント_9_1" data-name="コンポーネント 9 – 1">
      <g id="長方形_200" data-name="長方形 200" fill="#fff" stroke="#ececec" stroke-width="1">
        <rect width="642" height="52" stroke="none"/>
        <rect x="0.5" y="0.5" width="641" height="51" fill="none"/>
      </g>
    </g>
    <text id="Pump_group" data-name="Pump group" transform="translate(75 32)" fill="#2d4650" font-size="16" font-family="NotoSans, Noto Sans"><tspan x="0" y="0">Pump group</tspan></text>
    <text id="Group" transform="translate(219 32)" fill="#2d4650" font-size="16" font-family="NotoSans, Noto Sans"><tspan x="0" y="0">Group</tspan></text>
    <g id="Dropdown_arrow_OFF" data-name="Dropdown arrow/OFF" transform="translate(12.836 31.02) rotate(-90)">
      <g id="コンポーネント_18_1" data-name="コンポーネント 18 – 1">
        <path id="パス_296" data-name="パス 296" d="M1803.616,4362.342l5.184,4.609-5.184,4.247" transform="translate(4371.198 -1803.616) rotate(90)" fill="none" stroke="#5b7284" stroke-width="1"/>
      </g>
    </g>
    <g id="Check_box_OFF" data-name="Check box/OFF" transform="translate(32 20)">
      <g id="Check_box" data-name="Check box" transform="translate(-11 -3)">
        <g id="長方形_40" data-name="長方形 40" transform="translate(11 3)" fill="none" stroke="#2d4650" stroke-miterlimit="10" stroke-width="1">
          <rect width="14" height="14" rx="2" stroke="none"/>
          <rect x="0.5" y="0.5" width="13" height="13" rx="1.5" fill="none"/>
        </g>
      </g>
    </g>
    <text id="_12_Feb_2020" data-name="12 Feb, 2020" transform="translate(317 32)" fill="#2d4650" font-size="16" font-family="NotoSans, Noto Sans"><tspan x="0" y="0">12 Feb, 2020</tspan></text>
  </g>
  <g id="Extension_table_Mobile_default-2" data-name="Extension table/Mobile/default" transform="translate(0 107)">
    <g id="コンポーネント_9_1-2" data-name="コンポーネント 9 – 1">
      <g id="長方形_200-2" data-name="長方形 200" fill="#fff" stroke="#ececec" stroke-width="1">
        <rect width="642" height="52" stroke="none"/>
        <rect x="0.5" y="0.5" width="641" height="51" fill="none"/>
      </g>
    </g>
    <text id="Pump_group-2" data-name="Pump group" transform="translate(75 32)" fill="#2d4650" font-size="16" font-family="NotoSans, Noto Sans"><tspan x="0" y="0">Pump group</tspan></text>
    <text id="Group-2" data-name="Group" transform="translate(219 32)" fill="#2d4650" font-size="16" font-family="NotoSans, Noto Sans"><tspan x="0" y="0">Group</tspan></text>
    <g id="Dropdown_arrow_OFF-2" data-name="Dropdown arrow/OFF" transform="translate(12.836 31.02) rotate(-90)">
      <g id="コンポーネント_18_1-2" data-name="コンポーネント 18 – 1">
        <path id="パス_296-2" data-name="パス 296" d="M1803.616,4362.342l5.184,4.609-5.184,4.247" transform="translate(4371.198 -1803.616) rotate(90)" fill="none" stroke="#5b7284" stroke-width="1"/>
      </g>
    </g>
    <g id="Check_box_OFF-2" data-name="Check box/OFF" transform="translate(32 20)">
      <g id="Check_box-2" data-name="Check box" transform="translate(-11 -3)">
        <g id="長方形_40-2" data-name="長方形 40" transform="translate(11 3)" fill="none" stroke="#2d4650" stroke-miterlimit="10" stroke-width="1">
          <rect width="14" height="14" rx="2" stroke="none"/>
          <rect x="0.5" y="0.5" width="13" height="13" rx="1.5" fill="none"/>
        </g>
      </g>
    </g>
    <text id="_12_Feb_2020-2" data-name="12 Feb, 2020" transform="translate(317 32)" fill="#2d4650" font-size="16" font-family="NotoSans, Noto Sans"><tspan x="0" y="0">12 Feb, 2020</tspan></text>
  </g>
  <g id="グループ_6907" data-name="グループ 6907" transform="translate(-23 -103)">
    <path id="パス_13932" data-name="パス 13932" d="M2.349,0h637.3C640.948,0,642,1.791,642,4V56H0V4C0,1.791,1.052,0,2.349,0Z" transform="translate(23 103)" fill="#dfe4e8"/>
    <text id="Name" transform="translate(95 137)" fill="#2d4650" font-size="16" font-family="NotoSans-Bold, Noto Sans" font-weight="700"><tspan x="0" y="0">Name</tspan></text>
    <text id="Type" transform="translate(238 137)" fill="#2d4650" font-size="16" font-family="NotoSans-Bold, Noto Sans" font-weight="700"><tspan x="0" y="0">Type</tspan></text>
    <text id="Date" transform="translate(345 137)" fill="#2d4650" font-size="16" font-family="NotoSans-Bold, Noto Sans" font-weight="700"><tspan x="0" y="0">Date</tspan></text>
    <g id="Icon_Filter" data-name="Icon/Filter" transform="translate(148 124)">
      <g id="Filter" transform="translate(-8 -8)">
        <path id="パス_13998" data-name="パス 13998" d="M20.221,4.647a.8.8,0,0,0-.73-.517H5.068a.794.794,0,0,0-.72.511.86.86,0,0,0,.145.889L9.67,11.4v7.887a.82.82,0,0,0,.788.844h.023a.78.78,0,0,0,.363-.09l3.637-2.065a.842.842,0,0,0,.42-.733V11.4l5.175-5.872A.858.858,0,0,0,20.221,4.647Zm-9.178,5.848L6.9,5.819H17.661l-4.142,4.687a.87.87,0,0,0-.216.564v5.675l-2.043,1.14V11.056A.866.866,0,0,0,11.043,10.495Z" transform="translate(3.717 3.87)" fill="#2d4650"/>
      </g>
    </g>
    <g id="Icon_Filter-2" data-name="Icon/Filter" transform="translate(281 124)">
      <g id="Filter-2" data-name="Filter" transform="translate(-8 -8)">
        <path id="パス_13998-2" data-name="パス 13998" d="M20.221,4.647a.8.8,0,0,0-.73-.517H5.068a.794.794,0,0,0-.72.511.86.86,0,0,0,.145.889L9.67,11.4v7.887a.82.82,0,0,0,.788.844h.023a.78.78,0,0,0,.363-.09l3.637-2.065a.842.842,0,0,0,.42-.733V11.4l5.175-5.872A.858.858,0,0,0,20.221,4.647Zm-9.178,5.848L6.9,5.819H17.661l-4.142,4.687a.87.87,0,0,0-.216.564v5.675l-2.043,1.14V11.056A.866.866,0,0,0,11.043,10.495Z" transform="translate(3.717 3.87)" fill="#2d4650"/>
      </g>
    </g>
    <g id="Icon_Sort" data-name="Icon/Sort" transform="translate(177 124)">
      <path id="パス_13996" data-name="パス 13996" d="M20.084,12.513h0a1.036,1.036,0,0,1-1.474,0L13.453,7.487V18.974A.982.982,0,0,1,12.4,20h0a.982.982,0,0,1-1.053-1.026V7.487L6.189,12.513a1.036,1.036,0,0,1-1.474,0h0a.974.974,0,0,1,0-1.436l6.947-6.769a1.036,1.036,0,0,1,1.474,0l6.947,6.769A.974.974,0,0,1,20.084,12.513Z" transform="translate(-4.4 -4)" fill="#1d7ad6"/>
    </g>
    <g id="Icon_Filter-3" data-name="Icon/Filter" transform="translate(388 124)">
      <g id="Filter-3" data-name="Filter" transform="translate(-8 -8)">
        <path id="パス_13998-3" data-name="パス 13998" d="M20.221,4.647a.8.8,0,0,0-.73-.517H5.068a.794.794,0,0,0-.72.511.86.86,0,0,0,.145.889L9.67,11.4v7.887a.82.82,0,0,0,.788.844h.023a.78.78,0,0,0,.363-.09l3.637-2.065a.842.842,0,0,0,.42-.733V11.4l5.175-5.872A.858.858,0,0,0,20.221,4.647Zm-9.178,5.848L6.9,5.819H17.661l-4.142,4.687a.87.87,0,0,0-.216.564v5.675l-2.043,1.14V11.056A.866.866,0,0,0,11.043,10.495Z" transform="translate(3.717 3.87)" fill="#2d4650"/>
      </g>
    </g>
  </g>
  <g id="Extension_table_Mobile_default-3" data-name="Extension table/Mobile/default" transform="translate(0 56)">
    <g id="コンポーネント_9_1-3" data-name="コンポーネント 9 – 1">
      <g id="長方形_200-3" data-name="長方形 200" fill="#fff" stroke="#ececec" stroke-width="1">
        <rect width="642" height="52" stroke="none"/>
        <rect x="0.5" y="0.5" width="641" height="51" fill="none"/>
      </g>
    </g>
    <text id="Pump_group-3" data-name="Pump group" transform="translate(75 32)" fill="#2d4650" font-size="16" font-family="NotoSans, Noto Sans"><tspan x="0" y="0">Pump group</tspan></text>
    <text id="Group-3" data-name="Group" transform="translate(219 32)" fill="#2d4650" font-size="16" font-family="NotoSans, Noto Sans"><tspan x="0" y="0">Group</tspan></text>
    <g id="Dropdown_arrow_OFF-3" data-name="Dropdown arrow/OFF" transform="translate(12.836 31.02) rotate(-90)">
      <g id="コンポーネント_18_1-3" data-name="コンポーネント 18 – 1">
        <path id="パス_296-3" data-name="パス 296" d="M1803.616,4362.342l5.184,4.609-5.184,4.247" transform="translate(4371.198 -1803.616) rotate(90)" fill="none" stroke="#5b7284" stroke-width="1"/>
      </g>
    </g>
    <g id="Check_box_OFF-3" data-name="Check box/OFF" transform="translate(32 20)">
      <g id="Check_box-3" data-name="Check box" transform="translate(-11 -3)">
        <g id="長方形_40-3" data-name="長方形 40" transform="translate(11 3)" fill="none" stroke="#2d4650" stroke-miterlimit="10" stroke-width="1">
          <rect width="14" height="14" rx="2" stroke="none"/>
          <rect x="0.5" y="0.5" width="13" height="13" rx="1.5" fill="none"/>
        </g>
      </g>
    </g>
    <text id="_12_Feb_2020-3" data-name="12 Feb, 2020" transform="translate(317 32)" fill="#2d4650" font-size="16" font-family="NotoSans, Noto Sans"><tspan x="0" y="0">12 Feb, 2020</tspan></text>
  </g>
</svg>
