<svg id="Chip_selection" data-name="Chip/selection" xmlns="http://www.w3.org/2000/svg" width="200" height="24" viewBox="0 0 200 24">
  <g id="Chip_Normal" data-name="Chip/Normal">
    <rect id="長方形_4346" data-name="長方形 4346" width="66" height="24" rx="12" fill="#00cccb"/>
    <text id="Normal" transform="translate(33 17)" fill="#fff" font-size="12" font-family="NotoSans-Regular, Noto Sans"><tspan x="-21.192" y="0">Normal</tspan></text>
  </g>
  <g id="Chip_Progress" data-name="Chip/Progress" transform="translate(74)">
    <g id="パス_14030" data-name="パス 14030" fill="none">
      <path d="M12,0H62a12,12,0,0,1,0,24H12A12,12,0,0,1,12,0Z" stroke="none"/>
      <path d="M 12 1 C 9.061790466308594 1 6.299453735351563 2.144199371337891 4.221817016601563 4.221820831298828 C 2.144203186035156 6.299449920654297 1 9.061790466308594 1 12 C 1 14.93820953369141 2.144203186035156 17.7005500793457 4.221817016601563 19.77817916870117 C 6.299453735351563 21.85580062866211 9.061790466308594 23 12 23 L 62 23 C 64.93820953369141 23 67.70054626464844 21.85580062866211 69.77818298339844 19.77817916870117 C 71.85579681396484 17.7005500793457 73 14.93820953369141 73 12 C 73 9.061790466308594 71.85579681396484 6.299449920654297 69.77818298339844 4.221820831298828 C 67.70054626464844 2.144199371337891 64.93820953369141 1 62 1 L 12 1 M 12 0 L 62 0 C 68.62741851806641 0 74 5.372579574584961 74 12 C 74 18.62742042541504 68.62741851806641 24 62 24 L 12 24 C 5.372581481933594 24 0 18.62742042541504 0 12 C 0 5.372579574584961 5.372581481933594 0 12 0 Z" stroke="none" fill="#ececec"/>
    </g>
    <text id="Normal-2" data-name="Normal" transform="translate(37 17)" fill="#5b7284" font-size="12" font-family="NotoSans-Regular, Noto Sans"><tspan x="-24.798" y="0">Progress</tspan></text>
  </g>
  <g id="Chip_Fail" data-name="Chip/Fail" transform="translate(156)">
    <g id="パス_14311" data-name="パス 14311" fill="none">
      <path d="M12,0H32a12,12,0,0,1,0,24H12A12,12,0,0,1,12,0Z" stroke="none"/>
      <path d="M 12 1 C 9.061790466308594 1 6.299449920654297 2.144199371337891 4.221820831298828 4.221820831298828 C 2.144199371337891 6.299449920654297 1 9.061790466308594 1 12 C 1 14.93820953369141 2.144199371337891 17.7005500793457 4.221820831298828 19.77817916870117 C 6.299449920654297 21.85580062866211 9.061790466308594 23 12 23 L 32 23 C 34.93820953369141 23 37.7005500793457 21.85580062866211 39.77817916870117 19.77817916870117 C 41.85580062866211 17.7005500793457 43 14.93820953369141 43 12 C 43 9.061790466308594 41.85580062866211 6.299449920654297 39.77817916870117 4.221820831298828 C 37.7005500793457 2.144199371337891 34.93820953369141 1 32 1 L 12 1 M 12 0 L 32 0 C 38.62741851806641 0 44 5.372579574584961 44 12 C 44 18.62742042541504 38.62741851806641 24 32 24 L 12 24 C 5.372581481933594 24 0 18.62742042541504 0 12 C 0 5.372579574584961 5.372581481933594 0 12 0 Z" stroke="none" fill="#ececec"/>
    </g>
    <text id="Normal-3" data-name="Normal" transform="translate(22 17)" fill="#5b7284" font-size="12" font-family="NotoSans-Regular, Noto Sans"><tspan x="-9.576" y="0">Fail</tspan></text>
  </g>
</svg>
