<svg id="Table_with_sort_Web" data-name="Table with sort/Web" xmlns="http://www.w3.org/2000/svg" width="1236" height="465" viewBox="0 0 1236 465">
  <g id="Extension_table_Web_Default" data-name="Extension table/Web/Default" transform="translate(0 413)">
    <g id="コンポーネント_8_1" data-name="コンポーネント 8 – 1">
      <g id="コンポーネント_9_1" data-name="コンポーネント 9 – 1">
        <g id="長方形_200" data-name="長方形 200" fill="#fff" stroke="#ececec" stroke-width="1">
          <rect width="1236" height="52" stroke="none"/>
          <rect x="0.5" y="0.5" width="1235" height="51" fill="none"/>
        </g>
      </g>
    </g>
    <text id="Pump_group" data-name="Pump group" transform="translate(77 32)" fill="#2d4650" font-size="16" font-family="NotoSans, Noto Sans"><tspan x="0" y="0">Pump group</tspan></text>
    <text id="Group" transform="translate(334 32)" fill="#2d4650" font-size="16" font-family="NotoSans, Noto Sans"><tspan x="0" y="0">Group</tspan></text>
    <text id="_12_Feb_2020" data-name="12 Feb, 2020" transform="translate(632 32)" fill="#2d4650" font-size="16" font-family="NotoSans, Noto Sans"><tspan x="0" y="0">12 Feb, 2020</tspan></text>
    <g id="Dropdown_arrow_OFF" data-name="Dropdown arrow/OFF" transform="translate(14.836 31.02) rotate(-90)">
      <g id="コンポーネント_18_1" data-name="コンポーネント 18 – 1">
        <path id="パス_296" data-name="パス 296" d="M1803.616,4362.342l5.184,4.609-5.184,4.247" transform="translate(4371.198 -1803.616) rotate(90)" fill="none" stroke="#5b7284" stroke-width="1"/>
      </g>
    </g>
    <g id="Check_box_OFF" data-name="Check box/OFF" transform="translate(34 20)">
      <g id="Check_box" data-name="Check box" transform="translate(-11 -3)">
        <g id="長方形_40" data-name="長方形 40" transform="translate(11 3)" fill="none" stroke="#2d4650" stroke-miterlimit="10" stroke-width="1">
          <rect width="14" height="14" rx="2" stroke="none"/>
          <rect x="0.5" y="0.5" width="13" height="13" rx="1.5" fill="none"/>
        </g>
      </g>
    </g>
  </g>
  <g id="Extension_table_Web_Default-2" data-name="Extension table/Web/Default" transform="translate(0 362)">
    <g id="コンポーネント_8_1-2" data-name="コンポーネント 8 – 1">
      <g id="コンポーネント_9_1-2" data-name="コンポーネント 9 – 1">
        <g id="長方形_200-2" data-name="長方形 200" fill="#fff" stroke="#ececec" stroke-width="1">
          <rect width="1236" height="52" stroke="none"/>
          <rect x="0.5" y="0.5" width="1235" height="51" fill="none"/>
        </g>
      </g>
    </g>
    <text id="Pump_group-2" data-name="Pump group" transform="translate(77 32)" fill="#2d4650" font-size="16" font-family="NotoSans, Noto Sans"><tspan x="0" y="0">Pump group</tspan></text>
    <text id="Group-2" data-name="Group" transform="translate(334 32)" fill="#2d4650" font-size="16" font-family="NotoSans, Noto Sans"><tspan x="0" y="0">Group</tspan></text>
    <text id="_12_Feb_2020-2" data-name="12 Feb, 2020" transform="translate(632 32)" fill="#2d4650" font-size="16" font-family="NotoSans, Noto Sans"><tspan x="0" y="0">12 Feb, 2020</tspan></text>
    <g id="Dropdown_arrow_OFF-2" data-name="Dropdown arrow/OFF" transform="translate(14.836 31.02) rotate(-90)">
      <g id="コンポーネント_18_1-2" data-name="コンポーネント 18 – 1">
        <path id="パス_296-2" data-name="パス 296" d="M1803.616,4362.342l5.184,4.609-5.184,4.247" transform="translate(4371.198 -1803.616) rotate(90)" fill="none" stroke="#5b7284" stroke-width="1"/>
      </g>
    </g>
    <g id="Check_box_OFF-2" data-name="Check box/OFF" transform="translate(34 20)">
      <g id="Check_box-2" data-name="Check box" transform="translate(-11 -3)">
        <g id="長方形_40-2" data-name="長方形 40" transform="translate(11 3)" fill="none" stroke="#2d4650" stroke-miterlimit="10" stroke-width="1">
          <rect width="14" height="14" rx="2" stroke="none"/>
          <rect x="0.5" y="0.5" width="13" height="13" rx="1.5" fill="none"/>
        </g>
      </g>
    </g>
  </g>
  <g id="Extension_table_Web_Default-3" data-name="Extension table/Web/Default" transform="translate(0 311)">
    <g id="コンポーネント_8_1-3" data-name="コンポーネント 8 – 1">
      <g id="コンポーネント_9_1-3" data-name="コンポーネント 9 – 1">
        <g id="長方形_200-3" data-name="長方形 200" fill="#fff" stroke="#ececec" stroke-width="1">
          <rect width="1236" height="52" stroke="none"/>
          <rect x="0.5" y="0.5" width="1235" height="51" fill="none"/>
        </g>
      </g>
    </g>
    <text id="Pump_group-3" data-name="Pump group" transform="translate(77 32)" fill="#2d4650" font-size="16" font-family="NotoSans, Noto Sans"><tspan x="0" y="0">Pump group</tspan></text>
    <text id="Group-3" data-name="Group" transform="translate(334 32)" fill="#2d4650" font-size="16" font-family="NotoSans, Noto Sans"><tspan x="0" y="0">Group</tspan></text>
    <text id="_12_Feb_2020-3" data-name="12 Feb, 2020" transform="translate(632 32)" fill="#2d4650" font-size="16" font-family="NotoSans, Noto Sans"><tspan x="0" y="0">12 Feb, 2020</tspan></text>
    <g id="Dropdown_arrow_OFF-3" data-name="Dropdown arrow/OFF" transform="translate(14.836 31.02) rotate(-90)">
      <g id="コンポーネント_18_1-3" data-name="コンポーネント 18 – 1">
        <path id="パス_296-3" data-name="パス 296" d="M1803.616,4362.342l5.184,4.609-5.184,4.247" transform="translate(4371.198 -1803.616) rotate(90)" fill="none" stroke="#5b7284" stroke-width="1"/>
      </g>
    </g>
    <g id="Check_box_OFF-3" data-name="Check box/OFF" transform="translate(34 20)">
      <g id="Check_box-3" data-name="Check box" transform="translate(-11 -3)">
        <g id="長方形_40-3" data-name="長方形 40" transform="translate(11 3)" fill="none" stroke="#2d4650" stroke-miterlimit="10" stroke-width="1">
          <rect width="14" height="14" rx="2" stroke="none"/>
          <rect x="0.5" y="0.5" width="13" height="13" rx="1.5" fill="none"/>
        </g>
      </g>
    </g>
  </g>
  <g id="Extension_table_Web_Default-4" data-name="Extension table/Web/Default" transform="translate(0 260)">
    <g id="コンポーネント_8_1-4" data-name="コンポーネント 8 – 1">
      <g id="コンポーネント_9_1-4" data-name="コンポーネント 9 – 1">
        <g id="長方形_200-4" data-name="長方形 200" fill="#fff" stroke="#ececec" stroke-width="1">
          <rect width="1236" height="52" stroke="none"/>
          <rect x="0.5" y="0.5" width="1235" height="51" fill="none"/>
        </g>
      </g>
    </g>
    <text id="Pump_group-4" data-name="Pump group" transform="translate(77 32)" fill="#2d4650" font-size="16" font-family="NotoSans, Noto Sans"><tspan x="0" y="0">Pump group</tspan></text>
    <text id="Group-4" data-name="Group" transform="translate(334 32)" fill="#2d4650" font-size="16" font-family="NotoSans, Noto Sans"><tspan x="0" y="0">Group</tspan></text>
    <text id="_12_Feb_2020-4" data-name="12 Feb, 2020" transform="translate(632 32)" fill="#2d4650" font-size="16" font-family="NotoSans, Noto Sans"><tspan x="0" y="0">12 Feb, 2020</tspan></text>
    <g id="Dropdown_arrow_OFF-4" data-name="Dropdown arrow/OFF" transform="translate(14.836 31.02) rotate(-90)">
      <g id="コンポーネント_18_1-4" data-name="コンポーネント 18 – 1">
        <path id="パス_296-4" data-name="パス 296" d="M1803.616,4362.342l5.184,4.609-5.184,4.247" transform="translate(4371.198 -1803.616) rotate(90)" fill="none" stroke="#5b7284" stroke-width="1"/>
      </g>
    </g>
    <g id="Check_box_OFF-4" data-name="Check box/OFF" transform="translate(34 20)">
      <g id="Check_box-4" data-name="Check box" transform="translate(-11 -3)">
        <g id="長方形_40-4" data-name="長方形 40" transform="translate(11 3)" fill="none" stroke="#2d4650" stroke-miterlimit="10" stroke-width="1">
          <rect width="14" height="14" rx="2" stroke="none"/>
          <rect x="0.5" y="0.5" width="13" height="13" rx="1.5" fill="none"/>
        </g>
      </g>
    </g>
  </g>
  <g id="Extension_table_Web_Default-5" data-name="Extension table/Web/Default" transform="translate(0 209)">
    <g id="コンポーネント_8_1-5" data-name="コンポーネント 8 – 1">
      <g id="コンポーネント_9_1-5" data-name="コンポーネント 9 – 1">
        <g id="長方形_200-5" data-name="長方形 200" fill="#fff" stroke="#ececec" stroke-width="1">
          <rect width="1236" height="52" stroke="none"/>
          <rect x="0.5" y="0.5" width="1235" height="51" fill="none"/>
        </g>
      </g>
    </g>
    <text id="Pump_group-5" data-name="Pump group" transform="translate(77 32)" fill="#2d4650" font-size="16" font-family="NotoSans, Noto Sans"><tspan x="0" y="0">Pump group</tspan></text>
    <text id="Group-5" data-name="Group" transform="translate(334 32)" fill="#2d4650" font-size="16" font-family="NotoSans, Noto Sans"><tspan x="0" y="0">Group</tspan></text>
    <text id="_12_Feb_2020-5" data-name="12 Feb, 2020" transform="translate(632 32)" fill="#2d4650" font-size="16" font-family="NotoSans, Noto Sans"><tspan x="0" y="0">12 Feb, 2020</tspan></text>
    <g id="Dropdown_arrow_OFF-5" data-name="Dropdown arrow/OFF" transform="translate(14.836 31.02) rotate(-90)">
      <g id="コンポーネント_18_1-5" data-name="コンポーネント 18 – 1">
        <path id="パス_296-5" data-name="パス 296" d="M1803.616,4362.342l5.184,4.609-5.184,4.247" transform="translate(4371.198 -1803.616) rotate(90)" fill="none" stroke="#5b7284" stroke-width="1"/>
      </g>
    </g>
    <g id="Check_box_OFF-5" data-name="Check box/OFF" transform="translate(34 20)">
      <g id="Check_box-5" data-name="Check box" transform="translate(-11 -3)">
        <g id="長方形_40-5" data-name="長方形 40" transform="translate(11 3)" fill="none" stroke="#2d4650" stroke-miterlimit="10" stroke-width="1">
          <rect width="14" height="14" rx="2" stroke="none"/>
          <rect x="0.5" y="0.5" width="13" height="13" rx="1.5" fill="none"/>
        </g>
      </g>
    </g>
  </g>
  <g id="Extension_table_Web_Default-6" data-name="Extension table/Web/Default" transform="translate(0 158)">
    <g id="コンポーネント_8_1-6" data-name="コンポーネント 8 – 1">
      <g id="コンポーネント_9_1-6" data-name="コンポーネント 9 – 1">
        <g id="長方形_200-6" data-name="長方形 200" fill="#fff" stroke="#ececec" stroke-width="1">
          <rect width="1236" height="52" stroke="none"/>
          <rect x="0.5" y="0.5" width="1235" height="51" fill="none"/>
        </g>
      </g>
    </g>
    <text id="Pump_group-6" data-name="Pump group" transform="translate(77 32)" fill="#2d4650" font-size="16" font-family="NotoSans, Noto Sans"><tspan x="0" y="0">Pump group</tspan></text>
    <text id="Group-6" data-name="Group" transform="translate(334 32)" fill="#2d4650" font-size="16" font-family="NotoSans, Noto Sans"><tspan x="0" y="0">Group</tspan></text>
    <text id="_12_Feb_2020-6" data-name="12 Feb, 2020" transform="translate(632 32)" fill="#2d4650" font-size="16" font-family="NotoSans, Noto Sans"><tspan x="0" y="0">12 Feb, 2020</tspan></text>
    <g id="Dropdown_arrow_OFF-6" data-name="Dropdown arrow/OFF" transform="translate(14.836 31.02) rotate(-90)">
      <g id="コンポーネント_18_1-6" data-name="コンポーネント 18 – 1">
        <path id="パス_296-6" data-name="パス 296" d="M1803.616,4362.342l5.184,4.609-5.184,4.247" transform="translate(4371.198 -1803.616) rotate(90)" fill="none" stroke="#5b7284" stroke-width="1"/>
      </g>
    </g>
    <g id="Check_box_OFF-6" data-name="Check box/OFF" transform="translate(34 20)">
      <g id="Check_box-6" data-name="Check box" transform="translate(-11 -3)">
        <g id="長方形_40-6" data-name="長方形 40" transform="translate(11 3)" fill="none" stroke="#2d4650" stroke-miterlimit="10" stroke-width="1">
          <rect width="14" height="14" rx="2" stroke="none"/>
          <rect x="0.5" y="0.5" width="13" height="13" rx="1.5" fill="none"/>
        </g>
      </g>
    </g>
  </g>
  <g id="Extension_table_Web_Default-7" data-name="Extension table/Web/Default" transform="translate(0 107)">
    <g id="コンポーネント_8_1-7" data-name="コンポーネント 8 – 1">
      <g id="コンポーネント_9_1-7" data-name="コンポーネント 9 – 1">
        <g id="長方形_200-7" data-name="長方形 200" fill="#fff" stroke="#ececec" stroke-width="1">
          <rect width="1236" height="52" stroke="none"/>
          <rect x="0.5" y="0.5" width="1235" height="51" fill="none"/>
        </g>
      </g>
    </g>
    <text id="Pump_group-7" data-name="Pump group" transform="translate(77 32)" fill="#2d4650" font-size="16" font-family="NotoSans, Noto Sans"><tspan x="0" y="0">Pump group</tspan></text>
    <text id="Group-7" data-name="Group" transform="translate(334 32)" fill="#2d4650" font-size="16" font-family="NotoSans, Noto Sans"><tspan x="0" y="0">Group</tspan></text>
    <text id="_12_Feb_2020-7" data-name="12 Feb, 2020" transform="translate(632 32)" fill="#2d4650" font-size="16" font-family="NotoSans, Noto Sans"><tspan x="0" y="0">12 Feb, 2020</tspan></text>
    <g id="Dropdown_arrow_OFF-7" data-name="Dropdown arrow/OFF" transform="translate(14.836 31.02) rotate(-90)">
      <g id="コンポーネント_18_1-7" data-name="コンポーネント 18 – 1">
        <path id="パス_296-7" data-name="パス 296" d="M1803.616,4362.342l5.184,4.609-5.184,4.247" transform="translate(4371.198 -1803.616) rotate(90)" fill="none" stroke="#5b7284" stroke-width="1"/>
      </g>
    </g>
    <g id="Check_box_OFF-7" data-name="Check box/OFF" transform="translate(34 20)">
      <g id="Check_box-7" data-name="Check box" transform="translate(-11 -3)">
        <g id="長方形_40-7" data-name="長方形 40" transform="translate(11 3)" fill="none" stroke="#2d4650" stroke-miterlimit="10" stroke-width="1">
          <rect width="14" height="14" rx="2" stroke="none"/>
          <rect x="0.5" y="0.5" width="13" height="13" rx="1.5" fill="none"/>
        </g>
      </g>
    </g>
  </g>
  <g id="Extension_table_Web_Default-8" data-name="Extension table/Web/Default" transform="translate(0 56)">
    <g id="コンポーネント_8_1-8" data-name="コンポーネント 8 – 1">
      <g id="コンポーネント_9_1-8" data-name="コンポーネント 9 – 1">
        <g id="長方形_200-8" data-name="長方形 200" fill="#fff" stroke="#ececec" stroke-width="1">
          <rect width="1236" height="52" stroke="none"/>
          <rect x="0.5" y="0.5" width="1235" height="51" fill="none"/>
        </g>
      </g>
    </g>
    <text id="Pump_group-8" data-name="Pump group" transform="translate(77 32)" fill="#2d4650" font-size="16" font-family="NotoSans, Noto Sans"><tspan x="0" y="0">Pump group</tspan></text>
    <text id="Group-8" data-name="Group" transform="translate(334 32)" fill="#2d4650" font-size="16" font-family="NotoSans, Noto Sans"><tspan x="0" y="0">Group</tspan></text>
    <text id="_12_Feb_2020-8" data-name="12 Feb, 2020" transform="translate(632 32)" fill="#2d4650" font-size="16" font-family="NotoSans, Noto Sans"><tspan x="0" y="0">12 Feb, 2020</tspan></text>
    <g id="Dropdown_arrow_OFF-8" data-name="Dropdown arrow/OFF" transform="translate(14.836 31.02) rotate(-90)">
      <g id="コンポーネント_18_1-8" data-name="コンポーネント 18 – 1">
        <path id="パス_296-8" data-name="パス 296" d="M1803.616,4362.342l5.184,4.609-5.184,4.247" transform="translate(4371.198 -1803.616) rotate(90)" fill="none" stroke="#5b7284" stroke-width="1"/>
      </g>
    </g>
    <g id="Check_box_OFF-8" data-name="Check box/OFF" transform="translate(34 20)">
      <g id="Check_box-8" data-name="Check box" transform="translate(-11 -3)">
        <g id="長方形_40-8" data-name="長方形 40" transform="translate(11 3)" fill="none" stroke="#2d4650" stroke-miterlimit="10" stroke-width="1">
          <rect width="14" height="14" rx="2" stroke="none"/>
          <rect x="0.5" y="0.5" width="13" height="13" rx="1.5" fill="none"/>
        </g>
      </g>
    </g>
  </g>
  <g id="グループ_6908" data-name="グループ 6908" transform="translate(-22 -102)">
    <g id="グループ_6888" data-name="グループ 6888">
      <g id="グループ_6876" data-name="グループ 6876" transform="translate(-1 -1)">
        <path id="パス_13932" data-name="パス 13932" d="M4.523,0H1231.477A4.286,4.286,0,0,1,1236,4V56H0V4A4.286,4.286,0,0,1,4.523,0Z" transform="translate(23 103)" fill="#dfe4e8"/>
        <text id="Name" transform="translate(100 137)" fill="#2d4650" font-size="16" font-family="NotoSans-Bold, Noto Sans" font-weight="700"><tspan x="0" y="0">Name</tspan></text>
        <text id="Type" transform="translate(357 137)" fill="#2d4650" font-size="16" font-family="NotoSans-Bold, Noto Sans" font-weight="700"><tspan x="0" y="0">Type</tspan></text>
        <text id="Date" transform="translate(681 137)" fill="#2d4650" font-size="16" font-family="NotoSans-Bold, Noto Sans" font-weight="700"><tspan x="0" y="0">Date</tspan></text>
        <g id="Check_box-9" data-name="Check box" transform="translate(55 123.735)">
          <g id="Check_box-10" data-name="Check box" transform="translate(-11 -3)">
            <g id="長方形_40-9" data-name="長方形 40" transform="translate(11 3)" fill="none" stroke="#2d4650" stroke-miterlimit="10" stroke-width="1">
              <rect width="14" height="14" rx="2" stroke="none"/>
              <rect x="0.5" y="0.5" width="13" height="13" rx="1.5" fill="none"/>
            </g>
          </g>
        </g>
      </g>
      <g id="Icon_Filter" data-name="Icon/Filter" transform="translate(157 122)">
        <g id="Filter" transform="translate(-8 -8)">
          <path id="パス_13998" data-name="パス 13998" d="M20.221,4.647a.8.8,0,0,0-.73-.517H5.068a.794.794,0,0,0-.72.511.86.86,0,0,0,.145.889L9.67,11.4v7.887a.82.82,0,0,0,.788.844h.023a.78.78,0,0,0,.363-.09l3.637-2.065a.842.842,0,0,0,.42-.733V11.4l5.175-5.872A.858.858,0,0,0,20.221,4.647Zm-9.178,5.848L6.9,5.819H17.661l-4.142,4.687a.87.87,0,0,0-.216.564v5.675l-2.043,1.14V11.056A.866.866,0,0,0,11.043,10.495Z" transform="translate(3.717 3.87)" fill="#2d4650"/>
        </g>
      </g>
      <g id="Filter-2" data-name="Filter" transform="translate(404 122)">
        <g id="Filter-3" data-name="Filter" transform="translate(-8 -8)">
          <path id="パス_13998-2" data-name="パス 13998" d="M20.221,4.647a.8.8,0,0,0-.73-.517H5.068a.794.794,0,0,0-.72.511.86.86,0,0,0,.145.889L9.67,11.4v7.887a.82.82,0,0,0,.788.844h.023a.78.78,0,0,0,.363-.09l3.637-2.065a.842.842,0,0,0,.42-.733V11.4l5.175-5.872A.858.858,0,0,0,20.221,4.647Zm-9.178,5.848L6.9,5.819H17.661l-4.142,4.687a.87.87,0,0,0-.216.564v5.675l-2.043,1.14V11.056A.866.866,0,0,0,11.043,10.495Z" transform="translate(3.717 3.87)" fill="#2d4650"/>
        </g>
      </g>
      <g id="Filter-4" data-name="Filter" transform="translate(729 122)">
        <g id="Filter-5" data-name="Filter" transform="translate(-8 -8)">
          <path id="パス_13998-3" data-name="パス 13998" d="M20.221,4.647a.8.8,0,0,0-.73-.517H5.068a.794.794,0,0,0-.72.511.86.86,0,0,0,.145.889L9.67,11.4v7.887a.82.82,0,0,0,.788.844h.023a.78.78,0,0,0,.363-.09l3.637-2.065a.842.842,0,0,0,.42-.733V11.4l5.175-5.872A.858.858,0,0,0,20.221,4.647Zm-9.178,5.848L6.9,5.819H17.661l-4.142,4.687a.87.87,0,0,0-.216.564v5.675l-2.043,1.14V11.056A.866.866,0,0,0,11.043,10.495Z" transform="translate(3.717 3.87)" fill="#2d4650"/>
        </g>
      </g>
    </g>
    <g id="Icon_Sort" data-name="Icon/Sort" transform="translate(186 122)">
      <path id="パス_13996" data-name="パス 13996" d="M20.084,12.513h0a1.036,1.036,0,0,1-1.474,0L13.453,7.487V18.974A.982.982,0,0,1,12.4,20h0a.982.982,0,0,1-1.053-1.026V7.487L6.189,12.513a1.036,1.036,0,0,1-1.474,0h0a.974.974,0,0,1,0-1.436l6.947-6.769a1.036,1.036,0,0,1,1.474,0l6.947,6.769A.974.974,0,0,1,20.084,12.513Z" transform="translate(-4.4 -4)" fill="#1d7ad6"/>
    </g>
  </g>
</svg>
