<svg xmlns="http://www.w3.org/2000/svg" width="16" height="16" viewBox="0 0 16 16">
  <g id="Icon_Sort" data-name="Icon/Sort" transform="translate(0 0)">
    <path id="パス_13996" data-name="パス 13996" d="M20.084,12.513h0a1.036,1.036,0,0,1-1.474,0L13.453,7.487V18.974A.982.982,0,0,1,12.4,20h0a.982.982,0,0,1-1.053-1.026V7.487L6.189,12.513a1.036,1.036,0,0,1-1.474,0h0a.974.974,0,0,1,0-1.436l6.947-6.769a1.036,1.036,0,0,1,1.474,0l6.947,6.769A.974.974,0,0,1,20.084,12.513Z" transform="translate(-4.4 -4)" fill="#1d7ad6"/>
  </g>
</svg>
