<svg xmlns="http://www.w3.org/2000/svg" width="13.964" height="13.965" viewBox="0 0 13.964 13.965">
  <g id="Check_box_ON" data-name="Check box/ON" transform="translate(0 0)">
    <path id="パス_14016" data-name="パス 14016" d="M41.367,105.11H31.393A2,2,0,0,0,29.4,107.1v9.975a2,2,0,0,0,1.995,1.995h9.975a1.994,1.994,0,0,0,1.995-1.995V107.1A2,2,0,0,0,41.367,105.11Zm-.1,4.489c-1.995,2.095-4.09,4.189-6.084,6.184-1.3-1.3-2.593-2.693-3.89-3.99a8.994,8.994,0,0,1,1-.9l2.893,2.893c1.7-1.8,3.491-3.591,5.287-5.386l1,1Z" transform="translate(-29.398 -105.11)" fill="#1d7ad6"/>
  </g>
</svg>
