<svg id="Icon_Filter" data-name="Icon/Filter" xmlns="http://www.w3.org/2000/svg" width="16" height="16" viewBox="0 0 16 16">
  <g id="Filter" transform="translate(-8 -8)">
    <path id="パス_13998" data-name="パス 13998" d="M20.221,4.647a.8.8,0,0,0-.73-.517H5.068a.794.794,0,0,0-.72.511.86.86,0,0,0,.145.889L9.67,11.4v7.887a.82.82,0,0,0,.788.844h.023a.78.78,0,0,0,.363-.09l3.637-2.065a.842.842,0,0,0,.42-.733V11.4l5.175-5.872A.858.858,0,0,0,20.221,4.647Zm-9.178,5.848L6.9,5.819H17.661l-4.142,4.687a.87.87,0,0,0-.216.564v5.675l-2.043,1.14V11.056A.866.866,0,0,0,11.043,10.495Z" transform="translate(3.717 3.87)" fill="#2d4650"/>
  </g>
</svg>
