<svg xmlns="http://www.w3.org/2000/svg" xmlns:xlink="http://www.w3.org/1999/xlink" width="378" height="107" viewBox="0 0 378 107">
  <defs>
    <filter id="Path_13755" x="0" y="0" width="378" height="107" filterUnits="userSpaceOnUse">
      <feOffset dy="-3" input="SourceAlpha"/>
      <feGaussianBlur stdDeviation="3" result="blur"/>
      <feFlood flood-opacity="0.161"/>
      <feComposite operator="in" in2="blur"/>
      <feComposite in="SourceGraphic"/>
    </filter>
  </defs>
  <g id="Footer_Mobile" data-name="Footer/Mobile" transform="translate(9 12)">
    <g transform="matrix(1, 0, 0, 1, -9, -12)" filter="url(#Path_13755)">
      <path id="Path_13755-2" data-name="Path 13755" d="M0,0H360V89H0Z" transform="translate(9 12)" fill="#f3f3f3"/>
    </g>
    <g id="グループ_6102" data-name="グループ 6102" transform="translate(0 -551)">
      <text id="_2020_Yokogawa_Electric_Corporation._" data-name="© 2020, Yokogawa Electric Corporation. " transform="translate(67.816 613)" font-size="12" font-family="NotoSans-Regular, Noto Sans"><tspan x="0" y="0">© 2020, Yokogawa Electric Corporation. </tspan></text>
      <text id="All_Rights_Reserved." data-name="All Rights Reserved." transform="translate(124.652 630)" font-size="12" font-family="NotoSans-Regular, Noto Sans"><tspan x="0" y="0">All Rights Reserved.</tspan></text>
    </g>
    <text id="Terms_Conditions_Privacy_Guidelines_Sitemap" data-name="Terms &amp; Conditions        Privacy Guidelines        Sitemap" transform="translate(32 37)" font-size="12" font-family="NotoSans-Regular, Noto Sans"><tspan x="0" y="0" xml:space="preserve">Terms &amp; Conditions      Privacy Guidelines      Sitemap</tspan></text>
    <g id="Logo" transform="translate(136.7 8.467)">
      <g id="Group_2802" data-name="Group 2802" transform="translate(72.905 0.2)">
        <path id="Path_11405" data-name="Path 11405" d="M111.3,6.4a14.521,14.521,0,0,1,6.01,6.462A13.872,13.872,0,0,1,123.32,6.4L117.31.2Z" transform="translate(-111.3 -0.2)"/>
      </g>
      <g id="Group_2803" data-name="Group 2803" transform="translate(1.3 1.873)">
        <path id="Path_11406" data-name="Path 11406" d="M6.194,12.159h-1.3V8.35L1.3,2.9H2.973l2.6,4.137L8.115,2.9H9.788L6.194,8.35Z" transform="translate(-1.3 -2.9)"/>
      </g>
      <g id="Group_2804" data-name="Group 2804" transform="translate(8.673 1.625)">
        <path id="Path_11407" data-name="Path 11407" d="M17.413,2.5c-.62,0-4.213.327-4.213,4.975,0,4.386,3.593,4.779,4.275,4.779.743,0,4.275-.458,4.275-4.91C21.688,3.155,18.528,2.5,17.413,2.5Zm.062,8.576c-1.3,0-2.974-.786-2.974-3.666,0-2.619,1.611-3.666,2.912-3.666,1.177,0,2.974.851,2.974,3.8C20.387,10.421,18.4,11.076,17.475,11.076Z" transform="translate(-13.2 -2.5)"/>
      </g>
      <g id="Group_2805" data-name="Group 2805" transform="translate(18.563 1.873)">
        <path id="Path_11408" data-name="Path 11408" d="M29.2,12.159H27.9V2.9h1.425V7.365L33.414,2.9h1.735L31.555,6.84,35.4,12.159H33.724l-3.16-4.465L29.2,9.073Z" transform="translate(-27.9 -2.9)"/>
      </g>
      <g id="Group_2806" data-name="Group 2806" transform="translate(25.2 1.625)">
        <path id="Path_11409" data-name="Path 11409" d="M42.437,2.5C41.2,2.565,38.1,3.22,38.1,7.343c0,4.516,3.346,4.974,4.4,4.974,1.177,0,4.151-.851,4.213-4.908C46.712,2.5,42.375,2.5,42.437,2.5Zm0,8.573c-1.239,0-2.974-.72-2.974-3.665,0-2.814,1.735-3.665,2.912-3.665,1.549,0,2.85,1.178,2.85,3.6C45.287,10.484,43.428,11.073,42.437,11.073Z" transform="translate(-38.1 -2.5)"/>
      </g>
      <g id="Group_2807" data-name="Group 2807" transform="translate(34.735 1.625)">
        <path id="Path_11410" data-name="Path 11410" d="M57.137,7.214h3.717v4.779H59.8l-.124-.851a3.511,3.511,0,0,1-2.912,1.113c-1.859,0-3.965-1.637-3.965-4.91C52.8,5.119,54.224,2.5,56.95,2.5a3.47,3.47,0,0,1,3.78,3.011H59.367a2.365,2.365,0,0,0-2.416-1.833c-1.425,0-2.788.917-2.788,3.732,0,2.684,1.549,3.666,2.726,3.666s2.292-.393,2.726-2.684h-2.54Z" transform="translate(-52.8 -2.5)"/>
      </g>
      <g id="Group_2808" data-name="Group 2808" transform="translate(43.365 1.935)">
        <path id="Path_11411" data-name="Path 11411" d="M70.623,3h-1.8L66.1,12.259h1.425L68.268,9.7h3.346l.929,2.561h1.425ZM68.578,8.516l1.115-4.2.248.722L71.118,8.45h-2.54Z" transform="translate(-66.1 -3)"/>
      </g>
      <g id="Group_2809" data-name="Group 2809" transform="translate(50.027 1.873)">
        <path id="Path_11412" data-name="Path 11412" d="M76.2,2.9h1.487C78.864,8.02,79.05,8.873,79.3,9.858h0c.186-.919.681-2.1,1.8-6.958h1.363c1.3,5.12,1.487,5.973,1.8,7.023V9.858c.177-.858.425-1.838,1.6-6.958h1.487l-2.416,9.255h-1.3c-1.115-4.07-1.239-4.595-1.8-6.761h0c-.434,1.707-.62,2.3-1.8,6.827H78.678Z" transform="translate(-76.2 -2.9)"/>
      </g>
      <g id="Group_2810" data-name="Group 2810" transform="translate(60.176 1.935)">
        <path id="Path_11413" data-name="Path 11413" d="M96.77,3H95.1L92,12.259h1.363L94.168,9.7h3.407l.805,2.5h1.425ZM94.54,8.516l1.3-4.006L97.2,8.516Z" transform="translate(-92 -3)"/>
      </g>
    </g>
  </g>
</svg>
